<?xml version="1.0" encoding="utf-8"?>
<!-- Generator: Adobe Illustrator 18.0.0, SVG Export Plug-In . SVG Version: 6.00 Build 0)  -->
<!DOCTYPE svg PUBLIC "-//W3C//DTD SVG 1.1//EN" "http://www.w3.org/Graphics/SVG/1.1/DTD/svg11.dtd">
<svg version="1.1" id="Capa_1" xmlns="http://www.w3.org/2000/svg" xmlns:xlink="http://www.w3.org/1999/xlink" x="0px" y="0px"
	 viewBox="535.1 -161.4 377.5 529.5" enable-background="new 535.1 -161.4 377.5 529.5" xml:space="preserve">
<g>
	<path fill="#1D1D1B" d="M768.5,9.8c5.9-3.1,9.3-6.9,9.3-11c0-10.8-24.7-19.6-55.1-19.6S667.6-12,667.6-1.2c0,4,3.5,7.8,9.4,10.9
		l0,0C606.3,5.3,554.5-9.5,554.5-26.9c0-21.1,75.3-38.1,168.2-38.1S890.9-48,890.9-26.9C890.9-9.5,839.1,5.2,768.5,9.8z"/>
	<path fill="#1D1D1B" d="M722.7-17.8c-30.4,0-55.1,9.1-55.1,20.4c0,11.2,24.7,20.4,55.1,20.4c30.4,0,55.1-9.1,55.1-20.4
		C777.8-8.7,753.1-17.8,722.7-17.8z M722.2,17.5C706.1,17.5,693,12,693,5.2s13.1-12.3,29.2-12.3c16.1,0,29.2,5.5,29.2,12.3
		S738.3,17.5,722.2,17.5z"/>
	<circle fill="#1D1D1B" cx="722.5" cy="-139.5" r="11.9"/>
	<rect x="719.8" y="-130.4" fill="#1D1D1B" width="5.9" height="22.1"/>
	<path fill="#1D1D1B" d="M811.4-64.1c-25.8-3.7-56.1-5.8-88.7-5.8c-32.7,0-89,5.8-89,5.8c6.3-24.9,43.7-44.1,88.9-44.1
		C767.8-108.3,805.2-89.1,811.4-64.1z"/>
	<ellipse fill="#1D1D1B" cx="723" cy="324.4" rx="107.9" ry="25.7"/>
	
		<rect x="648.6" y="24.4" transform="matrix(0.9734 0.2293 -0.2293 0.9734 57.8048 -144.5879)" fill="#1D1D1B" width="4.9" height="304"/>
	
		<rect x="642.9" y="174" transform="matrix(0.22 0.9755 -0.9755 0.22 791.7947 -637.4564)" fill="#1D1D1B" width="303.3" height="4.9"/>
	<path fill="#1D1D1B" d="M775.7,177.2l-2-4.2l-2-3.1l-2.3-3.1l-2-2.3l-2.4-1l-2.4-1.1l-3.3-0.8l-2.4-1.5l-1.6-2.1l-1.3-2.8l-2.9-6.8
		l-2.4-8.3l-1.3-5.5l-2.8-9.8l-1.6-6.5l-1.1-3.4l-0.8-1.8l-1.6-0.7l-1,1v1.6l0.3,1.8l1.5,2.8l1.6,3.6l1.8,4.7l1,3.6v3.4v2.6h-2.1
		h-2.3h-3.4l-3.1,0.8l-2.8,1.5l-2.9,2.3l-2.6,2.8l-1.6,3.1l-1.6,2.8l-2.1,2l-3.9,2.9l-5.4,3.6l-6.7,4.4l-5.4,3.7l-4.9,3.1l-3.7,2.6
		l-5.1,1.6l-4.4,1.8l-3.4,1.6h-2.6l-1.3-1.6h-1h-1v2.3l-0.5,1.3l-1.3,0.7l-1.5,1l-1,0.7v1.8l0.8,2.9v3.3v1.8v2.4c0,0,0,2.6,0,3.3
		s0.5,3.6,0.5,3.6s1,1.5,1.6,1.8c0.7,0.2,2.4,0,2.4,0s1.4-0.1,2.1-0.7c0.7-0.6,1-1.8,1-1.8l1.3-1.8l1.3-1.3l1.6-1l1.5-1l1.6-0.5
		l2.1-0.5l2.3-0.8l2,0.3l1.3,0.7l1.3,1l2.4,1.6l2.9,1.5l3.3,2l2.9,0.2l3.6-0.3l2.8-0.8l3.1-0.8l2.4-1.1h1.8l3.1,3.7l3.3,3.6l2.9,3.9
		l1.2,1.6v3.1l1.1,1.1l4.2-2.9l-0.2-1l-1.3-2.1l-1.8-3.3l-2.4-3.1l-1.6-2.8l-2-3.1l-0.8-2.1l-1.5-2.6l3.9-2l4.6-2.6l3.9-2.6l3.7-3.6
		l3.6-4.2l2.6-4.1l1.5-2.6l0.7-1.1l1.5,0.2l1.8,1.3l1.6,1.3l2.3,1.5l2.4,1l2.9,1.9l1.6,2.6l1.3,6.2l1.1,6.8l3.7-2.8l-0.2-1.8
		l-0.8-2.8l-0.7-3.7l-1-3.4l-1-3.6l-1.3-4.2l1.6,0.5l2.9,1l2.4,1.6l2.6,2.8l1.1,3.3l0.2,3.4l0.3,2.4h1.1l4.4-4.2L775.7,177.2z
		 M672.3,191.7c-1.3,0-2.4-1.1-2.4-2.4s1.1-2.4,2.4-2.4s2.4,1.1,2.4,2.4S673.7,191.7,672.3,191.7z"/>
	<polygon fill="#1D1D1B" points="678,165.5 674.7,165.5 673.7,152.6 678.9,152.6 	"/>
	<rect x="674.8" y="167.5" fill="#1D1D1B" width="3.1" height="2.9"/>
</g>
</svg>
